<svg xmlns:dc="http://purl.org/dc/elements/1.1/" xmlns:cc="http://creativecommons.org/ns#" xmlns:rdf="http://www.w3.org/1999/02/22-rdf-syntax-ns#" xmlns:svg="http://www.w3.org/2000/svg" xmlns="http://www.w3.org/2000/svg" xmlns:sodipodi="http://sodipodi.sourceforge.net/DTD/sodipodi-0.dtd" xmlns:inkscape="http://www.inkscape.org/namespaces/inkscape" version="1.1" x="0px" y="0px" viewBox="0 0 100 125"><g transform="translate(0,-952.36218)"><path d="m 32.796951,977.50501 c -2.211,0 -4.0313,1.8202 -4.0313,4.0313 l 0,48.40629 c 0,2.2123 1.8203,4.0312 4.0313,4.0312 l 3,0 0,0.5625 c 0,1.1048 0.895,1.9687 2,1.9687 l 36.4374,0 c 1.105,0 2,-0.8639 2,-1.9687 l 0,-13.2813 c 0,-1.1048 -0.895,-2 -2,-2 l -2.625,0 0,-26.71869 a 1.0001,1.0001 0 0 0 -0.031,-0.1563 1.0001,1.0001 0 0 0 0,-0.062 1.0001,1.0001 0 0 0 0,-0.063 1.0001,1.0001 0 0 0 -0.031,-0.031 1.0001,1.0001 0 0 0 0,-0.062 1.0001,1.0001 0 0 0 -0.031,-0.031 1.0001,1.0001 0 0 0 0,-0.031 1.0001,1.0001 0 0 0 -0.031,-0.062 1.0001,1.0001 0 0 0 -0.031,-0.031 1.0001,1.0001 0 0 0 0,-0.031 1.0001,1.0001 0 0 0 -0.062,-0.062 1.0001,1.0001 0 0 0 0,-0.031 1.0001,1.0001 0 0 0 -0.062,-0.062 1.0001,1.0001 0 0 0 -0.031,-0.031 l -14.5626,-14 a 1.0001,1.0001 0 0 0 -0.031,0 1.0001,1.0001 0 0 0 -0.062,-0.062 1.0001,1.0001 0 0 0 -0.031,0 1.0001,1.0001 0 0 0 -0.031,-0.062 1.0001,1.0001 0 0 0 -0.031,0 1.0001,1.0001 0 0 0 -0.063,-0.062 1.0001,1.0001 0 0 0 -0.031,0 1.0001,1.0001 0 0 0 -0.062,-0.031 1.0001,1.0001 0 0 0 -0.031,0 1.0001,1.0001 0 0 0 -0.062,-0.031 1.0001,1.0001 0 0 0 -0.031,0 1.0001,1.0001 0 0 0 -0.062,-0.031 1.0001,1.0001 0 0 0 -0.031,0 1.0001,1.0001 0 0 0 -0.063,0 1.0001,1.0001 0 0 0 -0.094,0 l -0.125,0 -23.0937,0 z m 0,2 22.2187,0 0,10 c 0,2.2117 1.8208,4 4.0313,4 l 10.5624,0 0,25.74999 -31.8124,0 c -1.105,0 -2,0.8952 -2,2 l 0,10.7188 -3,0 c -1.1292,0 -2.0313,-0.8996 -2.0313,-2.0312 l 0,-48.40629 c 0,-1.1292 0.9021,-2.0313 2.0313,-2.0313 z m 24.2187,1.3438 11.0937,10.6562 -9.0624,0 c -1.1294,0 -2.0313,-0.8694 -2.0313,-2 l 0,-8.6562 z m -5.0937,14.7188 a 1.0001,1.0001 0 0 0 -0.8126,0.75 l -3.7812,14.09369 a 1.0004882,1.0004882 0 1 0 1.9375,0.5 l 3.7813,-14.06249 a 1.0001,1.0001 0 0 0 -1.0313,-1.2812 1.0001,1.0001 0 0 0 -0.094,0 z m -7.3438,2.6874 a 1.0001,1.0001 0 0 0 -0.4375,0.2188 l -6.0937,4.59379 a 1.0001,1.0001 0 0 0 -0.031,1.5937 l 6.0937,4.75 a 1.0031641,1.0031641 0 1 0 1.2188,-1.5937 l -5.0625,-3.9376 5.0937,-3.8124 a 1.0001,1.0001 0 0 0 -0.6874,-1.81259 1.0001,1.0001 0 0 0 -0.094,0 z m 10.875,0.2188 a 1.0001,1.0001 0 0 0 -0.4375,1.78119 l 5.0625,3.8438 -5.0312,3.9062 a 1.0032039,1.0032039 0 1 0 1.2187,1.5938 l 6.0937,-4.75 a 1.0001,1.0001 0 0 0 -0.031,-1.5625 l -6.0938,-4.62499 a 1.0001,1.0001 0 0 0 -0.7812,-0.1875 z m -7.8125,25.49999 c 0.9403,0 1.7253,0.2567 2.3125,0.8125 0.3496,0.3286 0.6065,0.8222 0.7812,1.4375 l -1.5312,0.3438 c -0.091,-0.3986 -0.2741,-0.7066 -0.5625,-0.9376 -0.2884,-0.2307 -0.65,-0.3437 -1.0625,-0.3437 -0.5698,0 -1.0202,0.216 -1.375,0.625 -0.3548,0.409 -0.5312,1.053 -0.5312,1.9687 0,0.972 0.1502,1.6814 0.5,2.0938 0.3494,0.4125 0.8157,0.625 1.375,0.625 0.4122,0 0.7654,-0.144 1.0624,-0.4062 0.2972,-0.2625 0.4957,-0.6874 0.625,-1.25 l 1.5313,0.5 c -0.2307,0.8387 -0.6197,1.4364 -1.1563,1.8437 -0.5363,0.4072 -1.2375,0.625 -2.0624,0.625 -1.0209,0 -1.8428,-0.3651 -2.5,-1.0625 -0.6571,-0.6974 -1,-1.6343 -1,-2.8438 0,-1.2791 0.3393,-2.2608 1,-2.9687 0.6604,-0.7078 1.517,-1.0625 2.5937,-1.0625 z m -6.3125,6.3438 1.5,0 0,1.4687 -1.5,0 0,-1.4687 z" style="text-indent:0;text-transform:none;direction:ltr;block-progression:tb;baseline-shift:baseline;color:#000000;enable-background:accumulate;" fill="#000000" fill-opacity="1" stroke="none" marker="none" visibility="visible" display="inline" overflow="visible"/></g><text x="0" y="115" fill="#000000" font-size="5px" font-weight="bold" font-family="'Helvetica Neue', Helvetica, Arial-Unicode, Arial, Sans-serif">Created by mantisshrimpdesign</text><text x="0" y="120" fill="#000000" font-size="5px" font-weight="bold" font-family="'Helvetica Neue', Helvetica, Arial-Unicode, Arial, Sans-serif">from the Noun Project</text></svg>